<svg width="24" height="24" viewBox="0 0 24 24" fill="none" xmlns="http://www.w3.org/2000/svg">
<path d="M2.30938 17.2707C2.0942 17.6206 1.85049 18.0307 1.65813 18.3553C1.61575 18.4278 1.58885 18.5083 1.57662 18.5913C1.56502 18.6746 1.56945 18.7594 1.58967 18.8411C1.60923 18.9233 1.64509 18.9998 1.694 19.0681C1.7429 19.1365 1.80485 19.195 1.87576 19.2406L6.19811 21.9005C6.27228 21.9468 6.35623 21.9778 6.44344 21.9916C6.52984 22.0054 6.6195 22.0022 6.70508 21.981C6.79067 21.9599 6.87136 21.9224 6.94227 21.8704C7.01318 21.8183 7.07268 21.7524 7.11751 21.6767C7.29194 21.387 7.51282 21.0119 7.75001 20.6116C9.4633 17.8069 11.1994 18.1503 14.3008 19.6222L18.5881 21.6515C18.6683 21.6899 18.7555 21.7118 18.8445 21.7159C18.9334 21.7199 19.0222 21.706 19.1057 21.6751C19.1888 21.6442 19.2654 21.597 19.3298 21.5359C19.395 21.4749 19.4464 21.4017 19.4822 21.3203L21.5403 16.6881C21.5753 16.61 21.5949 16.5262 21.5973 16.4408C21.6006 16.3562 21.5867 16.2707 21.5574 16.191C21.5281 16.1113 21.484 16.0372 21.427 15.9738C21.3699 15.9103 21.3015 15.859 21.224 15.8208C20.3201 15.3961 18.5212 14.5604 16.909 13.7728C11.0445 10.9486 6.09622 11.1349 2.30938 17.2707Z" fill="white"/>
<path d="M21.6892 6.74118C21.9068 6.39131 22.1505 5.98203 22.3404 5.65738C22.3836 5.58334 22.4122 5.50116 22.4244 5.41573C22.4366 5.33111 22.4317 5.24404 22.4105 5.16105C22.3889 5.07785 22.3512 4.99965 22.2997 4.93078C22.2482 4.86171 22.1837 4.80338 22.1098 4.7591L17.7939 2.09924C17.719 2.05286 17.6358 2.02195 17.5486 2.00811C17.4614 1.99428 17.3725 1.99835 17.287 2.01869C17.2014 2.03985 17.1207 2.07727 17.0498 2.12935C16.9789 2.18142 16.9194 2.24733 16.8737 2.323C16.7034 2.61266 16.4784 2.98776 16.2412 3.38808C14.5214 6.20579 12.8016 5.86243 9.69697 4.39051L5.41375 2.36043C5.33387 2.32219 5.24747 2.2994 5.15944 2.29452C5.07142 2.28883 4.98257 2.30184 4.89943 2.33114C4.8163 2.36043 4.73968 2.40599 4.67447 2.46539C4.60845 2.52479 4.55629 2.59639 4.51879 2.67613L2.46073 7.32132C2.38999 7.47888 2.38327 7.65769 2.44198 7.8201C2.47132 7.90065 2.51615 7.97469 2.57321 8.03816C2.63026 8.10162 2.69954 8.1537 2.77698 8.19112C3.68416 8.61667 5.48303 9.45149 7.09199 10.2399C12.941 13.0633 17.9048 12.8778 21.6892 6.74118Z" fill="white"/>
<path d="M2.30938 17.2707C2.0942 17.6206 1.85049 18.0307 1.65813 18.3553C1.61575 18.4278 1.58885 18.5083 1.57662 18.5913C1.56502 18.6746 1.56945 18.7594 1.58967 18.8411C1.60923 18.9233 1.64509 18.9998 1.694 19.0681C1.7429 19.1365 1.80485 19.195 1.87576 19.2406L6.19811 21.9005C6.27228 21.9468 6.35623 21.9778 6.44344 21.9916C6.52984 22.0054 6.6195 22.0022 6.70508 21.981C6.79067 21.9599 6.87136 21.9224 6.94227 21.8704C7.01318 21.8183 7.07268 21.7524 7.11751 21.6767C7.29194 21.387 7.51282 21.0119 7.75001 20.6116C9.4633 17.8069 11.1994 18.1503 14.3008 19.6222L18.5881 21.6515C18.6683 21.6899 18.7555 21.7118 18.8445 21.7159C18.9334 21.7199 19.0222 21.706 19.1057 21.6751C19.1888 21.6442 19.2654 21.597 19.3298 21.5359C19.395 21.4749 19.4464 21.4017 19.4822 21.3203L21.5403 16.6881C21.5753 16.61 21.5949 16.5262 21.5973 16.4408C21.6006 16.3562 21.5867 16.2707 21.5574 16.191C21.5281 16.1113 21.484 16.0372 21.427 15.9738C21.3699 15.9103 21.3015 15.859 21.224 15.8208C20.3201 15.3961 18.5212 14.5604 16.909 13.7728C11.0445 10.9486 6.09622 11.1349 2.30938 17.2707Z" fill="url(#paint0_linear_883_31624)"/>
<path d="M21.6892 6.74118C21.9068 6.39131 22.1505 5.98203 22.3404 5.65738C22.3836 5.58334 22.4122 5.50116 22.4244 5.41573C22.4366 5.33111 22.4317 5.24404 22.4105 5.16105C22.3889 5.07785 22.3512 4.99965 22.2997 4.93078C22.2482 4.86171 22.1837 4.80338 22.1098 4.7591L17.7939 2.09924C17.719 2.05286 17.6358 2.02195 17.5486 2.00811C17.4614 1.99428 17.3725 1.99835 17.287 2.01869C17.2014 2.03985 17.1207 2.07727 17.0498 2.12935C16.9789 2.18142 16.9194 2.24733 16.8737 2.323C16.7034 2.61266 16.4784 2.98776 16.2412 3.38808C14.5214 6.20579 12.8016 5.86243 9.69697 4.39051L5.41375 2.36043C5.33387 2.32219 5.24747 2.2994 5.15944 2.29452C5.07142 2.28883 4.98257 2.30184 4.89943 2.33114C4.8163 2.36043 4.73968 2.40599 4.67447 2.46539C4.60845 2.52479 4.55629 2.59639 4.51879 2.67613L2.46073 7.32132C2.38999 7.47888 2.38327 7.65769 2.44198 7.8201C2.47132 7.90065 2.51615 7.97469 2.57321 8.03816C2.63026 8.10162 2.69954 8.1537 2.77698 8.19112C3.68416 8.61667 5.48303 9.45149 7.09199 10.2399C12.941 13.0633 17.9048 12.8778 21.6892 6.74118Z" fill="url(#paint1_linear_883_31624)"/>
<defs>
<linearGradient id="paint0_linear_883_31624" x1="21.4017" y1="23.2778" x2="8.3554" y2="15.7669" gradientUnits="userSpaceOnUse">
<stop stop-color="#0052CC"/>
<stop offset="0.92" stop-color="#2380FB"/>
<stop offset="1" stop-color="#2684FF"/>
</linearGradient>
<linearGradient id="paint1_linear_883_31624" x1="2.59627" y1="0.731478" x2="15.6458" y2="8.24236" gradientUnits="userSpaceOnUse">
<stop stop-color="#0052CC"/>
<stop offset="0.92" stop-color="#2380FB"/>
<stop offset="1" stop-color="#2684FF"/>
</linearGradient>
</defs>
</svg>
