<svg width="24" height="24" viewBox="0 0 24 24" fill="none" xmlns="http://www.w3.org/2000/svg">
<path d="M9.90699 1.01006C9.90699 0.623459 10.2204 0.310059 10.607 0.310059H13.407C13.7936 0.310059 14.107 0.623459 14.107 1.01006V6.56006C14.107 6.94666 13.7936 7.26006 13.407 7.26006H10.607C10.2204 7.26006 9.90699 6.94666 9.90699 6.56006V1.01006Z" fill="white"/>
<path d="M19.5048 3.66094C19.8094 3.42293 20.2493 3.47694 20.4874 3.78159L22.2112 5.98802C22.4492 6.29266 22.3952 6.73257 22.0906 6.97059L17.7171 10.3875C17.4125 10.6255 16.9726 10.5715 16.7345 10.2669L15.0107 8.06044C14.7727 7.75579 14.8267 7.31588 15.1313 7.07786L19.5048 3.66094Z" fill="white"/>
<path d="M23.3732 12.6578C23.7505 12.7419 23.9882 13.116 23.9042 13.4933L23.2952 16.2263C23.2112 16.6036 22.8371 16.8414 22.4598 16.7573L17.0426 15.5503C16.6653 15.4663 16.4275 15.0922 16.5116 14.7149L17.1205 11.9819C17.2046 11.6045 17.5786 11.3668 17.956 11.4509L23.3732 12.6578Z" fill="white"/>
<path d="M18.772 21.4788C18.9404 21.8268 18.7948 22.2454 18.4468 22.4138L15.9265 23.6336C15.5785 23.802 15.1598 23.6564 14.9914 23.3084L12.5737 18.3127C12.4053 17.9647 12.5509 17.5461 12.8988 17.3777L15.4192 16.1579C15.7672 15.9895 16.1858 16.1351 16.3542 16.4831L18.772 21.4788Z" fill="white"/>
<path d="M9.04197 23.2571C8.8725 23.6045 8.45343 23.7488 8.10596 23.5794L5.58933 22.3519C5.24186 22.1825 5.09756 21.7634 5.26704 21.4159L7.7 16.4276C7.86947 16.0801 8.28854 15.9358 8.63601 16.1053L11.1526 17.3328C11.5001 17.5022 11.6444 17.9213 11.4749 18.2688L9.04197 23.2571Z" fill="white"/>
<path d="M1.53827 16.8831C1.16157 16.97 0.785706 16.7352 0.69874 16.3585L0.0688774 13.6302C-0.0180885 13.2535 0.21678 12.8777 0.593471 12.7907L6.00122 11.5422C6.37792 11.4553 6.75378 11.6901 6.84075 12.0668L7.47061 14.7951C7.55758 15.1718 7.32271 15.5476 6.94602 15.6346L1.53827 16.8831Z" fill="white"/>
<path d="M1.87161 6.9294C1.57078 6.68659 1.52375 6.24587 1.76657 5.94504L3.5252 3.76624C3.76802 3.46541 4.20873 3.41838 4.50956 3.66119L8.82827 7.14706C9.1291 7.38988 9.17613 7.83059 8.93332 8.13142L7.17468 10.3102C6.93186 10.6111 6.49115 10.6581 6.19032 10.4153L1.87161 6.9294Z" fill="white"/>
<path d="M9.90699 1.01006C9.90699 0.623459 10.2204 0.310059 10.607 0.310059H13.407C13.7936 0.310059 14.107 0.623459 14.107 1.01006V6.56006C14.107 6.94666 13.7936 7.26006 13.407 7.26006H10.607C10.2204 7.26006 9.90699 6.94666 9.90699 6.56006V1.01006Z" fill="#B7185A"/>
<path d="M19.5048 3.66094C19.8094 3.42293 20.2493 3.47694 20.4874 3.78159L22.2112 5.98802C22.4492 6.29266 22.3952 6.73257 22.0906 6.97059L17.7171 10.3875C17.4125 10.6255 16.9726 10.5715 16.7345 10.2669L15.0107 8.06044C14.7727 7.75579 14.8267 7.31588 15.1313 7.07786L19.5048 3.66094Z" fill="#F8821A"/>
<path d="M23.3732 12.6578C23.7505 12.7419 23.9882 13.116 23.9042 13.4933L23.2952 16.2263C23.2112 16.6036 22.8371 16.8414 22.4598 16.7573L17.0426 15.5503C16.6653 15.4663 16.4275 15.0922 16.5116 14.7149L17.1205 11.9819C17.2046 11.6045 17.5786 11.3668 17.956 11.4509L23.3732 12.6578Z" fill="#FBC31A"/>
<path d="M18.772 21.4788C18.9404 21.8268 18.7948 22.2454 18.4468 22.4138L15.9265 23.6336C15.5785 23.802 15.1598 23.6564 14.9914 23.3084L12.5737 18.3127C12.4053 17.9647 12.5509 17.5461 12.8988 17.3777L15.4192 16.1579C15.7672 15.9895 16.1858 16.1351 16.3542 16.4831L18.772 21.4788Z" fill="#38DDC1"/>
<path d="M9.04197 23.2571C8.8725 23.6045 8.45343 23.7488 8.10596 23.5794L5.58933 22.3519C5.24186 22.1825 5.09756 21.7634 5.26704 21.4159L7.7 16.4276C7.86947 16.0801 8.28854 15.9358 8.63601 16.1053L11.1526 17.3328C11.5001 17.5022 11.6444 17.9213 11.4749 18.2688L9.04197 23.2571Z" fill="#18B8EA"/>
<path d="M1.53827 16.8831C1.16157 16.97 0.785706 16.7352 0.69874 16.3585L0.0688774 13.6302C-0.0180885 13.2535 0.21678 12.8777 0.593471 12.7907L6.00122 11.5422C6.37792 11.4553 6.75378 11.6901 6.84075 12.0668L7.47061 14.7951C7.55758 15.1718 7.32271 15.5476 6.94602 15.6346L1.53827 16.8831Z" fill="#0046CB"/>
<path d="M1.87161 6.9294C1.57078 6.68659 1.52375 6.24587 1.76657 5.94504L3.5252 3.76624C3.76802 3.46541 4.20873 3.41838 4.50956 3.66119L8.82827 7.14706C9.1291 7.38988 9.17613 7.83059 8.93332 8.13142L7.17468 10.3102C6.93186 10.6111 6.49115 10.6581 6.19032 10.4153L1.87161 6.9294Z" fill="#8300FF"/>
</svg>
