<svg width="24" height="24" viewBox="0 0 24 24" fill="none" xmlns="http://www.w3.org/2000/svg">
<path d="M21.8191 2.5708H11.5C11.5 3.80624 11.9908 4.99107 12.8644 5.86466C13.7379 6.73825 14.9228 7.22902 16.1582 7.22902H18.0591V9.06438C18.0608 11.6347 20.144 13.718 22.7143 13.7197V3.46599C22.7143 2.97173 22.3136 2.5708 21.8191 2.5708Z" fill="white"/>
<path d="M16.7136 7.7124H6.39453C6.39613 10.2827 8.47932 12.366 11.0497 12.3677H12.9506V14.2089C12.9539 16.7792 15.0385 18.8611 17.6089 18.8611V8.60776C17.6089 8.11333 17.208 7.7124 16.7136 7.7124Z" fill="white"/>
<path d="M11.6043 12.8511H1.28516C1.28516 15.4237 3.37079 17.5093 5.94338 17.5093H7.85024V19.3446C7.85192 21.9125 9.93151 23.9949 12.4996 23.9998V13.7463C12.4996 13.2519 12.0987 12.8511 11.6043 12.8511Z" fill="white"/>
<path d="M21.8191 2.5708H11.5C11.5 3.80624 11.9908 4.99107 12.8644 5.86466C13.7379 6.73825 14.9228 7.22902 16.1582 7.22902H18.0591V9.06438C18.0608 11.6347 20.144 13.718 22.7143 13.7197V3.46599C22.7143 2.97173 22.3136 2.5708 21.8191 2.5708Z" fill="#2684FF"/>
<path d="M16.7097 7.70996H6.39062C6.39222 10.2803 8.47542 12.3636 11.0458 12.3652H12.9467V14.2065C12.95 16.7768 15.0346 18.8587 17.605 18.8587V8.60531C17.605 8.11089 17.2041 7.70996 16.7097 7.70996Z" fill="url(#paint0_linear_883_31612)"/>
<path d="M11.6043 12.8511H1.28516C1.28516 15.4237 3.37079 17.5093 5.94338 17.5093H7.85024V19.3446C7.85192 21.9125 9.93151 23.9949 12.4996 23.9998V13.7463C12.4996 13.2519 12.0987 12.8511 11.6043 12.8511Z" fill="url(#paint1_linear_883_31612)"/>
<defs>
<linearGradient id="paint0_linear_883_31612" x1="2813.3" y1="12.8428" x2="1700.07" y2="1313.81" gradientUnits="userSpaceOnUse">
<stop offset="0.18" stop-color="#0052CC"/>
<stop offset="1" stop-color="#2684FF"/>
</linearGradient>
<linearGradient id="paint1_linear_883_31612" x1="2883.63" y1="27.3567" x2="1595.92" y2="1446.3" gradientUnits="userSpaceOnUse">
<stop offset="0.18" stop-color="#0052CC"/>
<stop offset="1" stop-color="#2684FF"/>
</linearGradient>
</defs>
</svg>
