<svg width="24" height="24" viewBox="0 0 24 24" fill="none" xmlns="http://www.w3.org/2000/svg">
<path fill-rule="evenodd" clip-rule="evenodd" d="M10.9484 16.5902C9.88883 17.6481 8.48493 18.5026 6.61782 18.5026C3.36851 18.5026 0.169129 16.2631 0.00580299 12.5315L0.00573929 12.53C-0.135089 9.25309 2.33244 6.38045 5.57183 6.03729C6.58027 5.93046 7.48386 6.66623 7.59006 7.68067C7.69626 8.69511 6.96484 9.60409 5.9564 9.71092C4.64293 9.85006 3.61789 11.0467 3.67437 12.3698C3.73311 13.7023 4.88302 14.8086 6.61782 14.8086C7.24144 14.8086 7.76696 14.5621 8.36155 13.9684C9.0129 13.318 9.59003 12.4122 10.3161 11.2615L10.3433 11.2184C11.008 10.1649 11.8134 8.88812 12.8328 7.89599C13.9233 6.83451 15.3548 6 17.2427 6C20.4918 6 23.6909 8.23907 23.8547 11.9701C23.9999 15.2493 21.5307 18.1221 18.2917 18.4653C17.2832 18.5721 16.3796 17.8363 16.2735 16.8219C16.1672 15.8075 16.8987 14.8985 17.9071 14.7917C19.2212 14.6524 20.2447 13.4556 20.1862 12.1345V12.1336C20.1279 10.8007 18.9778 9.69394 17.2427 9.69394C16.5546 9.69394 15.9925 9.96051 15.3862 10.5507C14.7226 11.1966 14.136 12.1006 13.4164 13.2411C13.3899 13.283 13.3632 13.3254 13.3363 13.3681C12.6886 14.3955 11.9112 15.6288 10.9484 16.5902Z" fill="white"/>
<path fill-rule="evenodd" clip-rule="evenodd" d="M10.9484 16.5902C9.88883 17.6481 8.48493 18.5026 6.61782 18.5026C3.36851 18.5026 0.169129 16.2631 0.00580299 12.5315L0.00573929 12.53C-0.135089 9.25309 2.33244 6.38045 5.57183 6.03729C6.58027 5.93046 7.48386 6.66623 7.59006 7.68067C7.69626 8.69511 6.96484 9.60409 5.9564 9.71092C4.64293 9.85006 3.61789 11.0467 3.67437 12.3698C3.73311 13.7023 4.88302 14.8086 6.61782 14.8086C7.24144 14.8086 7.76696 14.5621 8.36155 13.9684C9.0129 13.318 9.59003 12.4122 10.3161 11.2615L10.3433 11.2184C11.008 10.1649 11.8134 8.88812 12.8328 7.89599C13.9233 6.83451 15.3548 6 17.2427 6C20.4918 6 23.6909 8.23907 23.8547 11.9701C23.9999 15.2493 21.5307 18.1221 18.2917 18.4653C17.2832 18.5721 16.3796 17.8363 16.2735 16.8219C16.1672 15.8075 16.8987 14.8985 17.9071 14.7917C19.2212 14.6524 20.2447 13.4556 20.1862 12.1345V12.1336C20.1279 10.8007 18.9778 9.69394 17.2427 9.69394C16.5546 9.69394 15.9925 9.96051 15.3862 10.5507C14.7226 11.1966 14.136 12.1006 13.4164 13.2411C13.3899 13.283 13.3632 13.3254 13.3363 13.3681C12.6886 14.3955 11.9112 15.6288 10.9484 16.5902Z" fill="url(#paint0_radial_883_31600)"/>
<defs>
<radialGradient id="paint0_radial_883_31600" cx="0" cy="0" r="1" gradientUnits="userSpaceOnUse" gradientTransform="translate(23.3625 13.8417) rotate(-164.438) scale(22.3456 41.4858)">
<stop stop-color="#4BC5EF"/>
<stop offset="1" stop-color="#81F0F4"/>
</radialGradient>
</defs>
</svg>
