<svg width="24" height="24" viewBox="0 0 24 24" fill="none" xmlns="http://www.w3.org/2000/svg">
<path fill-rule="evenodd" clip-rule="evenodd" d="M1.64987 10.5623C8.09231 7.75543 12.3883 5.90497 14.5378 5.01092C20.675 2.45823 21.9503 2.0148 22.7815 2.00016C22.9643 1.99694 23.3731 2.04224 23.6379 2.25709C23.8614 2.43851 23.9229 2.68357 23.9524 2.85557C23.9818 3.02757 24.0185 3.4194 23.9893 3.72555C23.6568 7.22 22.2177 15.7001 21.4856 19.6139C21.1758 21.27 20.5658 21.8253 19.9753 21.8796C18.6919 21.9977 17.7174 21.0315 16.4744 20.2167C14.5294 18.9417 13.4305 18.148 11.5425 16.9039C9.36064 15.466 10.7751 14.6758 12.0185 13.3842C12.344 13.0462 17.9985 7.90305 18.1079 7.43648C18.1216 7.37813 18.1343 7.16062 18.0051 7.04576C17.8759 6.93091 17.6851 6.97019 17.5475 7.00142C17.3524 7.0457 14.2452 9.09946 8.22584 13.1627C7.34386 13.7683 6.545 14.0634 5.82924 14.048C5.04018 14.0309 3.52233 13.6018 2.39397 13.235C1.00999 12.7851 -0.0899676 12.5473 0.00581423 11.7833C0.0557033 11.3853 0.603723 10.9783 1.64987 10.5623Z" fill="url(#paint0_linear_883_31648)"/>
<path fill-rule="evenodd" clip-rule="evenodd" d="M1.64987 10.5623C8.09231 7.75543 12.3883 5.90497 14.5378 5.01092C20.675 2.45823 21.9503 2.0148 22.7815 2.00016C22.9643 1.99694 23.3731 2.04224 23.6379 2.25709C23.8614 2.43851 23.9229 2.68357 23.9524 2.85557C23.9818 3.02757 24.0185 3.4194 23.9893 3.72555C23.6568 7.22 22.2177 15.7001 21.4856 19.6139C21.1758 21.27 20.5658 21.8253 19.9753 21.8796C18.6919 21.9977 17.7174 21.0315 16.4744 20.2167C14.5294 18.9417 13.4305 18.148 11.5425 16.9039C9.36064 15.466 10.7751 14.6758 12.0185 13.3842C12.344 13.0462 17.9985 7.90305 18.1079 7.43648C18.1216 7.37813 18.1343 7.16062 18.0051 7.04576C17.8759 6.93091 17.6851 6.97019 17.5475 7.00142C17.3524 7.0457 14.2452 9.09946 8.22584 13.1627C7.34386 13.7683 6.545 14.0634 5.82924 14.048C5.04018 14.0309 3.52233 13.6018 2.39397 13.235C1.00999 12.7851 -0.0899676 12.5473 0.00581423 11.7833C0.0557033 11.3853 0.603723 10.9783 1.64987 10.5623Z" fill="white"/>
<path fill-rule="evenodd" clip-rule="evenodd" d="M1.64987 10.5623C8.09231 7.75543 12.3883 5.90497 14.5378 5.01092C20.675 2.45823 21.9503 2.0148 22.7815 2.00016C22.9643 1.99694 23.3731 2.04224 23.6379 2.25709C23.8614 2.43851 23.9229 2.68357 23.9524 2.85557C23.9818 3.02757 24.0185 3.4194 23.9893 3.72555C23.6568 7.22 22.2177 15.7001 21.4856 19.6139C21.1758 21.27 20.5658 21.8253 19.9753 21.8796C18.6919 21.9977 17.7174 21.0315 16.4744 20.2167C14.5294 18.9417 13.4305 18.148 11.5425 16.9039C9.36064 15.466 10.7751 14.6758 12.0185 13.3842C12.344 13.0462 17.9985 7.90305 18.1079 7.43648C18.1216 7.37813 18.1343 7.16062 18.0051 7.04576C17.8759 6.93091 17.6851 6.97019 17.5475 7.00142C17.3524 7.0457 14.2452 9.09946 8.22584 13.1627C7.34386 13.7683 6.545 14.0634 5.82924 14.048C5.04018 14.0309 3.52233 13.6018 2.39397 13.235C1.00999 12.7851 -0.0899676 12.5473 0.00581423 11.7833C0.0557033 11.3853 0.603723 10.9783 1.64987 10.5623Z" fill="url(#paint1_linear_883_31648)"/>
<defs>
<linearGradient id="paint0_linear_883_31648" x1="23.6022" y1="2.1326" x2="10.5193" y2="16.3646" gradientUnits="userSpaceOnUse">
<stop stop-color="#FF868C"/>
<stop offset="0.515625" stop-color="#E27BE8"/>
<stop offset="1" stop-color="#2991FF"/>
</linearGradient>
<linearGradient id="paint1_linear_883_31648" x1="23.6022" y1="2.1326" x2="10.5193" y2="16.3646" gradientUnits="userSpaceOnUse">
<stop stop-color="#2AABEE"/>
<stop offset="1" stop-color="#229ED9"/>
</linearGradient>
</defs>
</svg>
