<svg width="21" height="20" viewBox="0 0 21 20" fill="none" xmlns="http://www.w3.org/2000/svg">
<path d="M2.42424 14.3923C2.24492 14.6839 2.04183 15.0256 1.88153 15.2962C1.84621 15.3565 1.8238 15.4236 1.81361 15.4928C1.80394 15.5622 1.80763 15.6329 1.82448 15.701C1.84078 15.7694 1.87067 15.8332 1.91142 15.8901C1.95217 15.9471 2.00379 15.9959 2.06289 16.0339L5.66484 18.2504C5.72665 18.2891 5.79662 18.3148 5.86929 18.3264C5.94129 18.3379 6.01601 18.3352 6.08733 18.3175C6.15865 18.2999 6.22589 18.2687 6.28498 18.2253C6.34407 18.1819 6.39366 18.127 6.43102 18.064C6.57637 17.8226 6.76044 17.51 6.9581 17.1764C8.38584 14.8391 9.8326 15.1253 12.4171 16.3519L15.9898 18.0429C16.0567 18.075 16.1294 18.0932 16.2035 18.0966C16.2776 18.1 16.3516 18.0884 16.4211 18.0626C16.4904 18.0368 16.5543 17.9975 16.6079 17.9467C16.6623 17.8958 16.7051 17.8348 16.7349 17.767L18.45 13.9068C18.4792 13.8417 18.4955 13.7719 18.4975 13.7007C18.5003 13.6302 18.4887 13.559 18.4643 13.4925C18.4398 13.4261 18.4031 13.3644 18.3556 13.3115C18.308 13.2586 18.251 13.2159 18.1865 13.184C17.4332 12.8301 15.9341 12.1337 14.5906 11.4774C9.70355 9.12386 5.57994 9.27913 2.42424 14.3923Z" fill="white"/>
<path d="M18.5743 5.61773C18.7557 5.32617 18.9588 4.98511 19.117 4.71457C19.153 4.65286 19.1768 4.58438 19.187 4.51319C19.1972 4.44267 19.1931 4.37012 19.1754 4.30096C19.1574 4.23162 19.126 4.16645 19.0831 4.10907C19.0402 4.05151 18.9864 4.0029 18.9248 3.966L15.3283 1.74945C15.2658 1.7108 15.1965 1.68504 15.1238 1.67351C15.0512 1.66198 14.9771 1.66537 14.9058 1.68232C14.8345 1.69995 14.7672 1.73114 14.7081 1.77454C14.6491 1.81793 14.5995 1.87286 14.5614 1.93591C14.4195 2.1773 14.232 2.48988 14.0343 2.82348C12.6012 5.17157 11.168 4.88544 8.58081 3.65884L5.01146 1.9671C4.94489 1.93524 4.87289 1.91625 4.79954 1.91218C4.72618 1.90744 4.65214 1.91829 4.58286 1.94269C4.51358 1.9671 4.44973 2.00508 4.39539 2.05457C4.34038 2.10407 4.29691 2.16374 4.26566 2.23019L2.5506 6.10118C2.49166 6.23248 2.48606 6.38149 2.53498 6.51683C2.55943 6.58395 2.59679 6.64566 2.64434 6.69854C2.69188 6.75143 2.74962 6.79483 2.81415 6.82602C3.57013 7.18064 5.06919 7.87632 6.40999 8.53335C11.2841 10.8862 15.4207 10.7316 18.5743 5.61773Z" fill="white"/>
<path fill-rule="evenodd" clip-rule="evenodd" d="M2.43895 14.5786C2.25917 14.8837 2.05726 15.2378 1.88578 15.5199C1.73229 15.7898 1.81469 16.1379 2.07109 16.3028L5.66672 18.6056C5.79293 18.6867 5.94515 18.7116 6.08921 18.6748C6.23326 18.638 6.35708 18.5426 6.43286 18.4099C6.57669 18.1594 6.762 17.8342 6.96391 17.4859C8.38833 15.0392 9.82104 15.3385 12.4044 16.6223L15.9696 18.3868C16.1046 18.4537 16.2599 18.4609 16.4001 18.4066C16.5402 18.3524 16.6533 18.2414 16.7136 18.099L18.4256 14.0691C18.5466 13.7813 18.4235 13.4457 18.1491 13.315C17.3967 12.9465 15.9004 12.2125 14.5534 11.5361C9.70764 9.08647 5.58927 9.24479 2.43895 14.5786Z" fill="url(#paint0_linear_1837_373877)"/>
<path fill-rule="evenodd" clip-rule="evenodd" d="M18.5616 5.43354C18.7414 5.12843 18.9433 4.77437 19.1148 4.49228C19.2682 4.22234 19.1858 3.8742 18.9294 3.70934L15.3338 1.40656C15.2066 1.31737 15.0495 1.28717 14.9 1.32319C14.7505 1.35922 14.6222 1.45821 14.5455 1.59654C14.4017 1.84696 14.2164 2.17223 14.0145 2.52053C12.5901 4.96723 11.1574 4.66787 8.57404 3.38407L5.01991 1.6282C4.88488 1.56132 4.72959 1.55417 4.58942 1.6084C4.44925 1.66263 4.33615 1.77361 4.27589 1.91605L2.56382 5.94591C2.44286 6.23373 2.56594 6.56933 2.84041 6.70007C3.59272 7.06852 5.08905 7.80253 6.43603 8.47897C11.2929 10.9257 15.4113 10.7616 18.5616 5.43354Z" fill="url(#paint1_linear_1837_373877)"/>
<defs>
<linearGradient id="paint0_linear_1837_373877" x1="18.3288" y1="19.7944" x2="14.0249" y2="10.3067" gradientUnits="userSpaceOnUse">
<stop offset="0.18" stop-color="#6199E2"/>
<stop offset="1" stop-color="white"/>
</linearGradient>
<linearGradient id="paint1_linear_1837_373877" x1="2.67169" y1="0.21487" x2="6.98242" y2="9.7069" gradientUnits="userSpaceOnUse">
<stop offset="0.18" stop-color="#6199E2"/>
<stop offset="1" stop-color="white"/>
</linearGradient>
</defs>
</svg>
