<svg width="20" height="20" viewBox="0 0 20 20" fill="none" xmlns="http://www.w3.org/2000/svg">
<path d="M8.25525 0.841634C8.25525 0.519468 8.51642 0.258301 8.83859 0.258301H11.1719C11.4941 0.258301 11.7553 0.519468 11.7553 0.841634V5.46663C11.7553 5.7888 11.4941 6.04997 11.1719 6.04997H8.83859C8.51642 6.04997 8.25525 5.7888 8.25525 5.46663V0.841634Z" fill="white"/>
<path d="M16.2534 3.0507C16.5073 2.85236 16.8739 2.89737 17.0722 3.15124L18.5088 4.98993C18.7071 5.2438 18.6621 5.6104 18.4082 5.80874L14.7637 8.65618C14.5098 8.85452 14.1432 8.80951 13.9449 8.55564L12.5083 6.71695C12.31 6.46308 12.355 6.09648 12.6089 5.89814L16.2534 3.0507Z" fill="white"/>
<path d="M19.4771 10.5481C19.7915 10.6182 19.9896 10.9299 19.9196 11.2443L19.4121 13.5218C19.3421 13.8363 19.0304 14.0344 18.7159 13.9643L14.2016 12.9585C13.8871 12.8885 13.689 12.5768 13.7591 12.2623L14.2665 9.98482C14.3366 9.67036 14.6483 9.47224 14.9627 9.5423L19.4771 10.5481Z" fill="white"/>
<path d="M15.6427 17.8989C15.7831 18.1889 15.6618 18.5378 15.3718 18.6781L13.2715 19.6946C12.9815 19.8349 12.6326 19.7136 12.4923 19.4236L10.4775 15.2605C10.3372 14.9705 10.4585 14.6217 10.7485 14.4813L12.8488 13.4649C13.1388 13.3245 13.4876 13.4458 13.628 13.7358L15.6427 17.8989Z" fill="white"/>
<path d="M7.53441 19.3808C7.39318 19.6704 7.04396 19.7906 6.7544 19.6494L4.65721 18.6265C4.36765 18.4853 4.2474 18.1361 4.38863 17.8465L6.4161 13.6896C6.55732 13.4 6.90655 13.2798 7.19611 13.421L9.29329 14.4439C9.58286 14.5851 9.7031 14.9343 9.56187 15.2239L7.53441 19.3808Z" fill="white"/>
<path d="M1.28132 14.0691C0.967409 14.1416 0.654186 13.9459 0.581714 13.632L0.0568282 11.3584C-0.0156434 11.0445 0.18008 10.7313 0.493989 10.6588L5.00045 9.61844C5.31436 9.54597 5.62758 9.7417 5.70006 10.0556L6.22494 12.3291C6.29741 12.643 6.10169 12.9563 5.78778 13.0287L1.28132 14.0691Z" fill="white"/>
<path d="M1.55911 5.77442C1.30841 5.57207 1.26922 5.20481 1.47157 4.95412L2.9371 3.13845C3.13945 2.88776 3.50671 2.84857 3.7574 3.05091L7.35632 5.9558C7.60702 6.15815 7.64621 6.52541 7.44386 6.7761L5.97833 8.59177C5.77598 8.84247 5.40872 8.88166 5.15803 8.67931L1.55911 5.77442Z" fill="white"/>
</svg>
