<svg width="21" height="20" viewBox="0 0 21 20" fill="none" xmlns="http://www.w3.org/2000/svg">
<path d="M18.6825 2.14233H10.0833C10.0833 3.17186 10.4922 4.15923 11.2202 4.88722C11.9482 5.61521 12.9356 6.02418 13.9651 6.02418H15.5492V7.55365C15.5506 9.69558 17.2866 11.4317 19.4285 11.4331V2.88832C19.4285 2.47644 19.0946 2.14233 18.6825 2.14233Z" fill="white"/>
<path d="M14.4281 6.427H5.82886C5.83019 8.56894 7.56619 10.305 9.70819 10.3064H11.2923V11.8408C11.295 13.9827 13.0322 15.7176 15.1741 15.7176V7.17313C15.1741 6.76111 14.8401 6.427 14.4281 6.427Z" fill="white"/>
<path d="M10.1703 10.7092H1.57104C1.57104 12.8531 3.30907 14.5911 5.4529 14.5911H7.04195V16.1205C7.04335 18.2605 8.77634 19.9958 10.9164 19.9998V11.4553C10.9164 11.0433 10.5823 10.7092 10.1703 10.7092Z" fill="white"/>
<path d="M18.6825 2.14233H10.0833C10.0833 3.17186 10.4922 4.15923 11.2202 4.88722C11.9482 5.61521 12.9356 6.02418 13.9651 6.02418H15.5492V7.55365C15.5506 9.69558 17.2866 11.4317 19.4285 11.4331V2.88832C19.4285 2.47644 19.0946 2.14233 18.6825 2.14233Z" fill="white"/>
<path d="M14.4281 6.427H5.82886C5.83019 8.56894 7.56619 10.305 9.70819 10.3064H11.2923V11.8408C11.295 13.9827 13.0322 15.7176 15.1741 15.7176V7.17313C15.1741 6.76111 14.8401 6.427 14.4281 6.427Z" fill="url(#paint0_linear_1837_373881)"/>
<path d="M10.1703 10.7092H1.57104C1.57104 12.8531 3.30907 14.5911 5.4529 14.5911H7.04195V16.1205C7.04335 18.2605 8.77634 19.9958 10.9164 19.9998V11.4553C10.9164 11.0433 10.5823 10.7092 10.1703 10.7092Z" fill="url(#paint1_linear_1837_373881)"/>
<defs>
<linearGradient id="paint0_linear_1837_373881" x1="13.0928" y1="4.62361" x2="9.45701" y2="8.41737" gradientUnits="userSpaceOnUse">
<stop offset="0.18" stop-color="#6199E2"/>
<stop offset="1" stop-color="white"/>
</linearGradient>
<linearGradient id="paint1_linear_1837_373881" x1="8.83503" y1="8.90584" x2="5.19925" y2="12.6996" gradientUnits="userSpaceOnUse">
<stop offset="0.18" stop-color="#6199E2"/>
<stop offset="1" stop-color="white"/>
</linearGradient>
</defs>
</svg>
