<svg width="20" height="20" viewBox="0 0 20 20" fill="none" xmlns="http://www.w3.org/2000/svg">
<path fill-rule="evenodd" clip-rule="evenodd" d="M9.12369 13.8251C8.24069 14.7067 7.07078 15.4188 5.51485 15.4188C2.80709 15.4188 0.140941 13.5526 0.00483583 10.4429L0.00478275 10.4417C-0.112574 7.71091 1.9437 5.31705 4.64319 5.03107C5.48356 4.94205 6.23655 5.55519 6.32505 6.40056C6.41355 7.24593 5.80404 8.00341 4.96367 8.09243C3.86911 8.20838 3.01491 9.2056 3.06198 10.3081C3.11092 11.4186 4.06918 12.3405 5.51485 12.3405C6.03453 12.3405 6.47247 12.1351 6.96796 11.6403C7.51075 11.0984 7.99169 10.3435 8.59677 9.38458L8.61938 9.34867C9.17331 8.47073 9.84454 7.40676 10.694 6.57999C11.6028 5.69543 12.7957 5 14.3689 5C17.0765 5 19.7424 6.86589 19.8789 9.97512C19.9999 12.7077 17.9422 15.1018 15.2431 15.3878C14.4027 15.4768 13.6497 14.8636 13.5612 14.0183C13.4727 13.1729 14.0822 12.4154 14.9226 12.3264C16.0177 12.2104 16.8706 11.213 16.8218 10.1121V10.1113C16.7732 9.00057 15.8148 8.07828 14.3689 8.07828C13.7955 8.07828 13.3271 8.30042 12.8218 8.79222C12.2688 9.33047 11.78 10.0838 11.1803 11.0342C11.1582 11.0692 11.136 11.1045 11.1136 11.1401C10.5738 11.9963 9.926 13.024 9.12369 13.8251Z" fill="white"/>
</svg>
