<svg width="20" height="20" viewBox="0 0 20 20" fill="none" xmlns="http://www.w3.org/2000/svg">
<path fill-rule="evenodd" clip-rule="evenodd" d="M1.3749 8.802C6.74359 6.46294 10.3236 4.92089 12.1148 4.17585C17.2292 2.04861 18.2919 1.67908 18.9846 1.66688C19.1369 1.66419 19.4776 1.70195 19.6982 1.88099C19.8845 2.03217 19.9358 2.23639 19.9603 2.37972C19.9848 2.52306 20.0154 2.84958 19.9911 3.10471C19.714 6.01675 18.5147 13.0835 17.9046 16.345C17.6465 17.7251 17.1382 18.1878 16.6461 18.2331C15.5766 18.3315 14.7645 17.5263 13.7287 16.8473C12.1078 15.7848 11.1921 15.1234 9.61879 14.0866C7.80053 12.8884 8.97923 12.2299 10.0154 11.1536C10.2866 10.872 14.9987 6.58596 15.0899 6.19715C15.1013 6.14852 15.1119 5.96726 15.0042 5.87155C14.8965 5.77584 14.7376 5.80857 14.6229 5.8346C14.4604 5.8715 11.871 7.58296 6.85486 10.969C6.11988 11.4737 5.45416 11.7196 4.8577 11.7067C4.20015 11.6925 2.93528 11.3349 1.99498 11.0293C0.84166 10.6544 -0.074973 10.4562 0.00484519 9.81947C0.0464194 9.48784 0.503103 9.14868 1.3749 8.802Z" fill="url(#paint0_linear_1837_373861)"/>
<path fill-rule="evenodd" clip-rule="evenodd" d="M1.3749 8.802C6.74359 6.46294 10.3236 4.92089 12.1148 4.17585C17.2292 2.04861 18.2919 1.67908 18.9846 1.66688C19.1369 1.66419 19.4776 1.70195 19.6982 1.88099C19.8845 2.03217 19.9358 2.23639 19.9603 2.37972C19.9848 2.52306 20.0154 2.84958 19.9911 3.10471C19.714 6.01675 18.5147 13.0835 17.9046 16.345C17.6465 17.7251 17.1382 18.1878 16.6461 18.2331C15.5766 18.3315 14.7645 17.5263 13.7287 16.8473C12.1078 15.7848 11.1921 15.1234 9.61879 14.0866C7.80053 12.8884 8.97923 12.2299 10.0154 11.1536C10.2866 10.872 14.9987 6.58595 15.0899 6.19715C15.1013 6.14852 15.1119 5.96726 15.0042 5.87155C14.8965 5.77584 14.7376 5.80857 14.6229 5.8346C14.4604 5.8715 11.871 7.58296 6.85486 10.969C6.11988 11.4737 5.45416 11.7196 4.8577 11.7067C4.20015 11.6925 2.93528 11.3349 1.99498 11.0293C0.84166 10.6544 -0.074973 10.4562 0.00484519 9.81946C0.0464194 9.48784 0.503103 9.14868 1.3749 8.802Z" fill="white"/>
<defs>
<linearGradient id="paint0_linear_1837_373861" x1="19.6685" y1="1.77725" x2="8.76612" y2="13.6373" gradientUnits="userSpaceOnUse">
<stop stop-color="#FF868C"/>
<stop offset="0.515625" stop-color="#E27BE8"/>
<stop offset="1" stop-color="#2991FF"/>
</linearGradient>
</defs>
</svg>
