<svg width="121" height="120" viewBox="0 0 121 120" fill="none" xmlns="http://www.w3.org/2000/svg">
<path d="M13.0584 40.735C14.3932 40.735 15.5056 39.6214 15.5056 38.2851V26.3697C15.5056 20.0223 20.6224 14.8998 26.9628 14.8998H38.0862C39.421 14.8998 40.5334 13.7862 40.5334 12.4499C40.5334 11.1136 39.421 10 38.0862 10H26.9628C17.9527 10 10.6113 17.3497 10.6113 26.3697V38.2851C10.6113 39.6214 11.7236 40.735 13.0584 40.735Z" fill="#0A3899"/>
<path d="M83.025 10H94.1484C103.158 10 110.5 17.3497 110.5 26.3697V38.2851C110.5 39.6214 109.388 40.735 108.053 40.735C106.718 40.735 105.606 39.6214 105.606 38.2851V26.3697C105.606 20.0223 100.489 14.8998 94.1484 14.8998H83.025C81.6902 14.8998 80.5778 13.7862 80.5778 12.4499C80.5778 11.1136 81.6902 10 83.025 10Z" fill="#0A3899"/>
<path d="M105.606 83.3853C105.606 82.049 106.718 80.9354 108.053 80.9354C109.388 80.9354 110.5 82.049 110.5 83.3853V93.6303C110.5 102.65 103.158 110 94.1484 110H83.025C81.6902 110 80.5778 108.886 80.5778 107.55C80.5778 106.214 81.6902 105.1 83.025 105.1H94.1484C100.489 105.1 105.606 99.9777 105.606 93.6303V83.3853Z" fill="#0A3899"/>
<path d="M81.5789 58.7751C83.2474 58.7751 84.5822 57.4388 84.6935 55.7684V47.7506C84.6935 45.9688 83.3587 44.6325 81.5789 44.6325C79.7991 44.6325 78.4643 46.0802 78.4643 47.7506V55.657C78.4643 57.4388 79.9104 58.7751 81.5789 58.7751Z" fill="#0A3899"/>
<path d="M61.0007 86.6147C66.4512 86.6147 71.7904 84.3876 75.7949 80.3786C76.796 79.3764 78.3533 79.3764 79.2432 80.3786C80.2443 81.3809 80.2443 82.9399 79.2432 83.8308C74.3488 88.8419 67.786 91.5145 61.0007 91.5145H60.1108C53.3255 91.5145 46.8739 88.8419 41.8683 83.8308C40.8672 82.8285 40.8672 81.2695 41.8683 80.3786C42.8694 79.3764 44.4267 79.3764 45.3166 80.3786C49.321 84.3876 54.5491 86.6147 60.1108 86.6147H61.0007Z" fill="#0A3899"/>
<path d="M54.4378 73.5857H54.9939C59.9995 73.5857 64.004 69.5768 64.004 64.6771V47.7505C64.004 46.4142 62.8916 45.3007 61.5568 45.3007C60.222 45.3007 59.1096 46.4142 59.1096 47.7505V64.5657C59.1096 66.9042 57.2186 68.686 54.9939 68.686H54.4378C53.1029 68.686 51.9906 69.7995 51.9906 71.1358C51.9906 72.4722 53.1029 73.5857 54.4378 73.5857Z" fill="#0A3899"/>
<path d="M34.8605 47.7506C34.8605 46.0802 36.1953 44.6325 37.9751 44.6325C39.6436 44.6325 41.0897 45.9688 41.0897 47.7506V55.7684C41.0897 57.4388 39.7548 58.7751 37.9751 58.7751C36.3066 58.7751 34.8605 57.4388 34.8605 55.657V47.7506Z" fill="#0A3899"/>
<path d="M26.8515 105.1H37.975C39.3098 105.1 40.4221 106.214 40.4221 107.55C40.4221 108.886 39.421 110 37.975 110H26.8515C17.8415 110 10.5 102.65 10.5 93.6303V83.3853C10.5 82.049 11.6123 80.9354 12.9472 80.9354C14.282 80.9354 15.3943 82.049 15.3943 83.3853V93.6303C15.3943 99.9777 20.5111 105.1 26.8515 105.1Z" fill="#0A3899"/>
</svg>
