<svg width="121" height="120" viewBox="0 0 121 120" fill="none" xmlns="http://www.w3.org/2000/svg">
<path d="M71.8789 51.7089C71.8789 58.2661 66.5436 63.5878 60 63.5878C53.4564 63.5878 48.1075 58.2661 48.1075 51.7089C48.1075 45.1518 53.4428 39.8165 60 39.8165C66.5572 39.8165 71.8789 45.1518 71.8789 51.7089ZM60 70.7288C46.6685 70.7288 35.8213 81.5759 35.8213 94.8938C35.8213 95.8713 36.6087 96.6587 37.5862 96.6587H82.4002C83.3913 96.6587 84.1651 95.8849 84.1651 94.8938C84.1651 81.5759 73.3179 70.7288 60 70.7288ZM15.4304 44.473V34.2911C15.4304 31.3858 16.5572 28.6706 18.6207 26.6071C20.6435 24.5843 23.4401 23.4304 26.2911 23.4304H36.473C37.9663 23.4304 39.1882 22.2085 39.1882 20.7152C39.1882 19.2218 37.9663 18 36.473 18H26.2911C22.0011 18 17.8061 19.7377 14.7787 22.7787C11.697 25.8469 10 29.9468 10 34.2911V44.473C10 45.9663 11.2218 47.1882 12.7152 47.1882C14.2085 47.1882 15.4304 45.9663 15.4304 44.473ZM39.1882 115.746C39.1882 114.253 37.9663 113.031 36.473 113.031H26.2911C23.4266 113.031 20.6299 111.877 18.6071 109.841C16.5572 107.805 15.4304 105.076 15.4304 102.171V91.9886C15.4304 90.4952 14.2085 89.2734 12.7152 89.2734C11.2218 89.2734 10 90.4952 10 91.9886V102.171C10 106.542 11.697 110.628 14.7651 113.683C17.779 116.724 21.9875 118.462 26.2911 118.462H36.473C37.9663 118.462 39.1882 117.24 39.1882 115.746ZM110 44.473V34.2911C110 29.9604 108.303 25.874 105.221 22.7651C102.126 19.697 98.0396 18 93.7089 18H83.527C82.0337 18 80.8118 19.2218 80.8118 20.7152C80.8118 22.2085 82.0337 23.4304 83.527 23.4304H93.7089C96.6006 23.4304 99.3293 24.5572 101.379 26.6071C103.429 28.6706 104.57 31.3994 104.57 34.2911V44.473C104.57 45.9663 105.791 47.1882 107.285 47.1882C108.778 47.1882 110 45.9663 110 44.473ZM105.221 113.683C108.303 110.601 110 106.515 110 102.171V91.9886C110 90.4952 108.778 89.2734 107.285 89.2734C105.791 89.2734 104.57 90.4952 104.57 91.9886V102.171C104.57 105.076 103.443 107.791 101.393 109.854C99.3429 111.918 96.6142 113.031 93.7089 113.031H83.527C82.0337 113.031 80.8118 114.253 80.8118 115.746C80.8118 117.24 82.0337 118.462 83.527 118.462H93.7089C98.0532 118.462 102.153 116.765 105.221 113.683Z" fill="#0A3899"/>
</svg>
